<?xml version="1.0" encoding="us-ascii" standalone="no"?><svg xmlns="http://www.w3.org/2000/svg" xmlns:xlink="http://www.w3.org/1999/xlink" contentStyleType="text/css" height="299px" preserveAspectRatio="none" style="width:473px;height:299px;background:#FFFFFF;" version="1.1" viewBox="0 0 473 299" width="473px" zoomAndPan="magnify"><defs/><g><ellipse cx="233.5" cy="20" fill="#222222" rx="10" ry="10" style="stroke:#222222;stroke-width:1.0;"/><polygon fill="#F1F1F1" points="196,50,271,50,283,62,271,74,196,74,184,62,196,50" style="stroke:#181818;stroke-width:0.5;"/><text fill="#000000" font-family="sans-serif" font-size="11" lengthAdjust="spacing" textLength="75" x="196" y="66.501">&#1095;&#1080;&#1089;&#1083;&#1086; &#1087;&#1086;&#1090;&#1086;&#1082;&#1086;&#1074;</text><rect fill="#F1F1F1" height="35.0938" rx="12.5" ry="12.5" style="stroke:#181818;stroke-width:0.5;" width="62" x="11" y="111.6719"/><text fill="#000000" font-family="sans-serif" font-size="12" lengthAdjust="spacing" textLength="42" x="21" y="134.1289">1 &#1087;&#1086;&#1090;&#1086;&#1082;</text><rect fill="#F1F1F1" height="35.0938" rx="12.5" ry="12.5" style="stroke:#181818;stroke-width:0.5;" width="72" x="95" y="111.6719"/><text fill="#000000" font-family="sans-serif" font-size="12" lengthAdjust="spacing" textLength="49" x="108" y="134.1289">2 &#1087;&#1086;&#1090;&#1086;&#1082;&#1072;</text><rect fill="#F1F1F1" height="35.0938" rx="12.5" ry="12.5" style="stroke:#181818;stroke-width:0.5;" width="69" x="189" y="111.6719"/><text fill="#000000" font-family="sans-serif" font-size="12" lengthAdjust="spacing" textLength="49" x="199" y="134.1289">3 &#1087;&#1086;&#1090;&#1086;&#1082;&#1072;</text><rect fill="#F1F1F1" height="90.375" rx="12.5" ry="12.5" style="stroke:#181818;stroke-width:0.5;" width="90" x="286.5" y="111.6719"/><text fill="#000000" font-family="sans-serif" font-size="12" lengthAdjust="spacing" textLength="49" x="296.5" y="134.1289">4 &#1087;&#1086;&#1090;&#1086;&#1082;&#1072;</text><line style="stroke:#181818;stroke-width:1.0;" x1="286.5" x2="376.5" y1="141.7656" y2="141.7656"/><text fill="#000000" font-family="sans-serif" font-size="12" lengthAdjust="spacing" textLength="47" x="296.5" y="159.2227">c&#1088;&#1086;&#1095;&#1085;&#1086;&#1077;</text><text fill="#000000" font-family="sans-serif" font-size="12" lengthAdjust="spacing" textLength="70" x="296.5" y="174.3164">&#1079;&#1072;&#1074;&#1077;&#1088;&#1096;&#1077;&#1085;&#1080;&#1103;</text><text fill="#000000" font-family="sans-serif" font-size="12" lengthAdjust="spacing" textLength="15" x="296.5" y="189.4102">kill</text><rect fill="#F1F1F1" height="35.0938" rx="12.5" ry="12.5" style="stroke:#181818;stroke-width:0.5;" width="69" x="386.5" y="111.6719"/><text fill="#000000" font-family="sans-serif" font-size="12" lengthAdjust="spacing" textLength="49" x="396.5" y="134.1289">5 &#1087;&#1086;&#1090;&#1086;&#1082;&#1072;</text><polygon fill="#F1F1F1" points="233.5,222.0469,233.5,222.0469,245.5,234.0469,233.5,246.0469,233.5,246.0469,221.5,234.0469,233.5,222.0469" style="stroke:#181818;stroke-width:0.5;"/><ellipse cx="233.5" cy="277.0469" fill="none" rx="11" ry="11" style="stroke:#222222;stroke-width:1.0;"/><ellipse cx="233.5" cy="277.0469" fill="#222222" rx="6" ry="6" style="stroke:#222222;stroke-width:1.0;"/><line style="stroke:#181818;stroke-width:1.0;" x1="184" x2="42" y1="62" y2="62"/><line style="stroke:#181818;stroke-width:1.0;" x1="42" x2="42" y1="62" y2="111.6719"/><polygon fill="#181818" points="38,101.6719,42,111.6719,46,101.6719,42,105.6719" style="stroke:#181818;stroke-width:1.0;"/><text fill="#000000" font-family="sans-serif" font-size="11" lengthAdjust="spacing" textLength="40" x="45" y="91.3369">&#1088;&#1072;&#1074;&#1085;&#1086; 1</text><line style="stroke:#181818;stroke-width:1.0;" x1="283" x2="421" y1="62" y2="62"/><line style="stroke:#181818;stroke-width:1.0;" x1="421" x2="421" y1="62" y2="111.6719"/><polygon fill="#181818" points="417,101.6719,421,111.6719,425,101.6719,421,105.6719" style="stroke:#181818;stroke-width:1.0;"/><text fill="#000000" font-family="sans-serif" font-size="11" lengthAdjust="spacing" textLength="40" x="421" y="91.3369">&#1088;&#1086;&#1074;&#1085;&#1086; 5</text><line style="stroke:#181818;stroke-width:1.0;" x1="131" x2="131" y1="62" y2="111.6719"/><polygon fill="#181818" points="127,101.6719,131,111.6719,135,101.6719,131,105.6719" style="stroke:#181818;stroke-width:1.0;"/><text fill="#000000" font-family="sans-serif" font-size="11" lengthAdjust="spacing" textLength="40" x="134" y="86.3369">&#1088;&#1072;&#1074;&#1085;&#1086; 2</text><line style="stroke:#181818;stroke-width:1.0;" x1="233.5" x2="233.5" y1="74" y2="86.5573"/><line style="stroke:#181818;stroke-width:1.0;" x1="233.5" x2="223.5" y1="86.5573" y2="86.5573"/><line style="stroke:#181818;stroke-width:1.0;" x1="223.5" x2="223.5" y1="86.5573" y2="111.6719"/><polygon fill="#181818" points="219.5,101.6719,223.5,111.6719,227.5,101.6719,223.5,105.6719" style="stroke:#181818;stroke-width:1.0;"/><text fill="#000000" font-family="sans-serif" font-size="11" lengthAdjust="spacing" textLength="40" x="226.5" y="92.3369">&#1088;&#1072;&#1074;&#1085;&#1086; 3</text><line style="stroke:#181818;stroke-width:1.0;" x1="331.5" x2="331.5" y1="62" y2="111.6719"/><polygon fill="#181818" points="327.5,101.6719,331.5,111.6719,335.5,101.6719,331.5,105.6719" style="stroke:#181818;stroke-width:1.0;"/><text fill="#000000" font-family="sans-serif" font-size="11" lengthAdjust="spacing" textLength="40" x="331.5" y="86.3369">&#1088;&#1072;&#1074;&#1085;&#1086; 4</text><line style="stroke:#181818;stroke-width:1.0;" x1="42" x2="42" y1="146.7656" y2="234.0469"/><line style="stroke:#181818;stroke-width:1.0;" x1="42" x2="221.5" y1="234.0469" y2="234.0469"/><polygon fill="#181818" points="211.5,230.0469,221.5,234.0469,211.5,238.0469,215.5,234.0469" style="stroke:#181818;stroke-width:1.0;"/><line style="stroke:#181818;stroke-width:1.0;" x1="421" x2="421" y1="146.7656" y2="234.0469"/><line style="stroke:#181818;stroke-width:1.0;" x1="421" x2="245.5" y1="234.0469" y2="234.0469"/><polygon fill="#181818" points="255.5,230.0469,245.5,234.0469,255.5,238.0469,251.5,234.0469" style="stroke:#181818;stroke-width:1.0;"/><line style="stroke:#181818;stroke-width:1.0;" x1="131" x2="131" y1="146.7656" y2="234.0469"/><polygon fill="#181818" points="127,224.0469,131,234.0469,135,224.0469,131,228.0469" style="stroke:#181818;stroke-width:1.0;"/><line style="stroke:#181818;stroke-width:1.0;" x1="223.5" x2="223.5" y1="146.7656" y2="207.0469"/><line style="stroke:#181818;stroke-width:1.0;" x1="223.5" x2="233.5" y1="207.0469" y2="207.0469"/><line style="stroke:#181818;stroke-width:1.0;" x1="233.5" x2="233.5" y1="207.0469" y2="222.0469"/><polygon fill="#181818" points="229.5,212.0469,233.5,222.0469,237.5,212.0469,233.5,216.0469" style="stroke:#181818;stroke-width:1.0;"/><line style="stroke:#181818;stroke-width:1.0;" x1="233.5" x2="233.5" y1="30" y2="50"/><polygon fill="#181818" points="229.5,40,233.5,50,237.5,40,233.5,44" style="stroke:#181818;stroke-width:1.0;"/><line style="stroke:#181818;stroke-width:1.0;" x1="233.5" x2="233.5" y1="246.0469" y2="266.0469"/><polygon fill="#181818" points="229.5,256.0469,233.5,266.0469,237.5,256.0469,233.5,260.0469" style="stroke:#181818;stroke-width:1.0;"/><!--SRC=[RT2z2i8m40Vm_PxYndPmwDTYdwRKWiMYOWAkrSLklaef58jYV8MxD_981ACqS1d2x_xSHUdYe44TQrskCU0BJNoY1nca5na-aw6xr102b8MgC41kgQU1daAY404Hbv67ynaNXvPXx8VsSp9nCfc5dakTItySBEH0ASp87i9e1BhPdf5RxcYKnucliAcR9hVtDzbyaZENdFrDK6rNxey0bDxjyGq0]--></g></svg>